<svg width="200" height="53" viewBox="0 0 200 53" fill="none" xmlns="http://www.w3.org/2000/svg">
<path d="M9.33833 49.3535L11.5278 49.3886L11.5595 45.876L9.3701 45.8441L9.3415 49.3535H9.33833ZM11.5564 45.876L13.7458 45.911L13.8316 35.3669L11.6422 35.3351L11.5564 45.8792V45.876ZM0.69179 35.1631L0.551971 52.7355L9.3129 52.8693L9.33833 49.3535L2.77001 49.2548L2.88123 35.1981L0.69179 35.1631Z" fill="currentColor"/>
<path d="M76.9063 52.8437C76.2705 52.8437 75.744 52.5073 75.3266 51.8345C74.906 51.165 74.6973 50.3192 74.6973 49.3037L74.7165 35.1631H76.9319L76.9127 49.3101L87.9769 49.3325L87.9705 52.8693L76.9063 52.8437Z" fill="currentColor"/>
<path d="M113.979 52.8405C113.343 52.8405 112.813 52.5042 112.396 51.8315C111.978 51.1621 111.77 50.3165 111.77 49.3011L111.789 35.1631H114.001L113.985 49.3076L125.049 49.3332L125.043 52.8693L113.982 52.8437L113.979 52.8405Z" fill="currentColor"/>
<path d="M151.096 52.8693C150.458 52.8693 149.929 52.5397 149.508 51.8774C149.088 51.2087 148.874 50.3673 148.874 49.3498L148.841 38.7562C148.838 37.7451 149.043 36.9004 149.46 36.2285C149.877 35.5566 150.406 35.2175 151.038 35.2143L159.876 35.1631C160.511 35.1631 161.037 35.4894 161.46 36.1581C161.884 36.8268 162.092 37.6683 162.095 38.6826L162.105 42.2117C162.105 43.2259 161.9 44.0674 161.48 44.7425C161.066 45.4144 160.54 45.7503 159.902 45.7567L151.064 45.8047L151.073 49.3402L162.121 49.2762C162.121 50.2905 161.916 51.1351 161.502 51.807C161.085 52.479 160.559 52.8149 159.921 52.8181L151.083 52.8693H151.096ZM151.064 42.2788L159.905 42.2277L159.896 38.6986L151.054 38.7466L151.064 42.2788Z" fill="currentColor"/>
<path d="M185.914 49.3095L196.965 49.3351V45.8009L188.133 45.7753C187.495 45.7753 186.969 45.4388 186.549 44.766C186.132 44.0963 185.923 43.2504 185.923 42.2315L185.933 35.1631H188.143L188.133 42.2379L196.974 42.2603L196.984 35.1887L199.193 35.1951L199.177 49.3383C199.174 50.3572 198.963 51.1967 198.546 51.8664C198.129 52.536 197.6 52.8725 196.965 52.8693L188.123 52.8468C187.488 52.8468 186.959 52.5104 186.542 51.8375C186.122 51.1647 185.917 50.322 185.917 49.3062" fill="currentColor"/>
<path d="M39.8376 52.8689C39.2018 52.8689 38.6719 52.5215 38.2544 51.8299C37.8369 51.1383 37.6249 50.268 37.6249 49.2157V38.2626C37.6249 37.2136 37.8369 36.34 38.2544 35.6484C38.6751 34.9568 39.2018 34.6094 39.8376 34.6094H48.6918C49.3277 34.6094 49.8544 34.9568 50.2751 35.6451C50.6926 36.34 50.9045 37.2103 50.9045 38.2626V49.2157C50.9045 50.268 50.6926 51.1383 50.2751 51.8299C49.8544 52.5215 49.3277 52.8689 48.6918 52.8656H39.8376V52.8689ZM39.8376 49.2157H48.6918V38.2626H39.8376V49.2157Z" fill="currentColor"/>
<path d="M133.817 27.7848C132.827 27.7899 132.001 27.2619 131.346 26.2111C130.691 25.1652 130.36 23.8378 130.36 22.2389L130.35 16.693C130.35 15.0991 130.676 13.7717 131.326 12.7159C131.976 11.66 132.797 11.1371 133.792 11.132L147.581 11.0968L147.571 5.55093L130.335 5.59618C130.335 4.0023 130.661 2.67993 131.311 1.62405C131.961 0.573194 132.782 0.0452522 133.777 0.0402241L147.566 0C148.556 0 149.377 0.522914 150.032 1.57377C150.692 2.62462 151.018 3.94699 151.023 5.54087L151.048 22.1886C151.048 23.7875 150.722 25.1049 150.072 26.1608C149.422 27.2167 148.596 27.7396 147.606 27.7446L133.812 27.7848H133.817ZM133.807 22.2339L147.596 22.1937V16.6478L133.797 16.683V22.2339H133.807Z" fill="currentColor"/>
<path d="M154.129 27.7849L154.079 0.0552783L171.297 0C172.287 0 173.112 0.517605 173.767 1.56789C174.421 2.61818 174.746 3.93983 174.751 5.53285L174.791 27.7145L171.347 27.7296L171.307 5.54793L157.528 5.59315L157.568 27.7698L154.124 27.7849H154.129Z" fill="currentColor"/>
<path d="M180.853 27.7849C179.837 27.7849 178.99 27.2562 178.323 26.2038C177.651 25.1514 177.317 23.8271 177.317 22.2259V5.55899C177.317 3.96279 177.651 2.63347 178.323 1.58109C178.99 0.528708 179.837 0.00503531 180.853 0H194.998C196.015 0 196.856 0.528708 197.534 1.57605C198.196 2.63347 198.535 3.95776 198.535 5.55899V22.2259C198.535 23.8271 198.201 25.1514 197.529 26.2038C196.861 27.2562 196.015 27.7849 194.998 27.7798H180.848L180.853 27.7849ZM180.853 22.2259H194.998V5.55899H180.848V22.2259H180.853Z" fill="currentColor"/>
<path d="M27.1942 27.7798C26.2024 27.7798 25.3759 27.2512 24.7247 26.199C24.0685 25.1468 23.743 23.8177 23.743 22.2218V5.55294C23.748 3.95703 24.0786 2.62795 24.7297 1.5808C25.3859 0.528611 26.2074 0 27.1992 0H41.0091C42.0008 0.0100688 42.8223 0.53868 43.4785 1.58583C44.1297 2.64306 44.4553 3.97214 44.4553 5.56804V22.2319C44.4553 23.8328 44.1247 25.1569 43.4685 26.2091C42.8173 27.2612 41.9908 27.7899 40.999 27.7848H27.1942V27.7798ZM27.1942 22.2218L41.004 22.2369V5.56301L27.1992 5.55294V22.2168L27.1942 22.2218Z" fill="currentColor"/>
<path d="M3.47963 27.7798C2.48833 27.7798 1.66224 27.2619 1.00638 26.2108C0.350518 25.1547 0.0250898 23.8321 0.0200832 22.2379L5.6893e-05 5.59217C-0.00494969 3.998 0.320478 2.67036 0.976341 1.61932C1.6272 0.563241 2.44828 0.0402315 3.43958 0.0352025L17.2377 0C18.229 0 19.0551 0.523009 19.711 1.57406C20.3669 2.6251 20.6973 3.94771 20.6973 5.54189L3.44459 5.58715L3.46462 22.2379L20.7123 22.1927C20.7123 23.7919 20.3919 25.1145 19.741 26.1655C19.0852 27.2166 18.2641 27.7497 17.2778 27.7547L3.47963 27.7849V27.7798Z" fill="currentColor"/>
<path d="M47.501 27.7849L47.4859 5.57911C47.4859 3.98436 47.8066 2.66127 48.4629 1.60481C49.1193 0.553383 49.9409 0.0251538 50.933 0.020123L64.7412 0C65.7332 0 66.5549 0.518168 67.2112 1.5696C67.8676 2.62102 68.1982 3.94411 68.1982 5.54389V11.0928L64.7462 11.1029V5.54892L50.928 5.56905L50.948 27.7798H47.4909L47.501 27.7849Z" fill="currentColor"/>
<path d="M76.8266 22.253L94.0576 22.1827L94.0476 16.6357L80.2628 16.691C79.2674 16.696 78.4471 16.1735 77.7869 15.1234C77.1317 14.0783 76.8016 12.7569 76.7966 11.1642L76.7866 5.61726C76.7816 4.01951 77.1067 2.6981 77.7569 1.648C78.4071 0.592878 79.2274 0.065317 80.2178 0.0602926L94.0026 0C94.9929 0 95.8182 0.517512 96.4734 1.56761C97.1287 2.61771 97.4588 3.93409 97.4588 5.52683L97.4988 22.1676C97.4988 23.7603 97.1787 25.0868 96.5285 26.1369C95.8782 27.192 95.058 27.7195 94.0676 27.7246L80.2778 27.7849C79.2824 27.7849 78.4621 27.2673 77.8069 26.2172C77.1517 25.1722 76.8216 23.8508 76.8216 22.253M80.2428 11.1491L94.0276 11.0888L94.0176 5.54692L80.2328 5.60219L80.2428 11.1491Z" fill="currentColor"/>
<path d="M103.977 27.7798C102.984 27.7798 102.163 27.2561 101.511 26.2038C100.855 25.1464 100.529 23.817 100.529 22.2208V0H103.992L103.982 22.2208L121.242 22.2309V27.7849L103.977 27.7748V27.7798Z" fill="currentColor"/>
<path d="M123.768 0.0151005L123.842 27.7849L127.81 27.7698L127.73 0L123.768 0.0151005Z" fill="currentColor"/>
<path d="M70.7242 0.0151005L70.7939 27.7849L74.2604 27.7698L74.1907 0L70.7242 0.0151005Z" fill="currentColor"/>
</svg>
